OFF
559 960 0
0 0.9807852506637573 -0.19509032368659973
0 1 0
0.19509032368659973 0.9807852506637573 0
0.19134171307086945 0.9619396924972534 -0.19509032368659973
6.705522537231445e-8 0.3826832175254822 0.9238795042037964
1.4901161193847656e-8 0.19509010016918182 0.9807852506637573
0.03806023299694061 0.19134171307086945 0.9807852506637573
0.07465784251689911 0.3753302991390228 0.9238795042037964
5.960464477539063e-8 0.9238790273666382 -0.3826834559440613
0.1802399456501007 0.906127393245697 -0.3826834559440613
0 0.5555702447891235 0.8314695954322815
0.10838638246059418 0.5448951125144958 0.8314695954322815
0 0.8314695954322815 -0.5555702447891235
0.16221167147159576 0.815493106842041 -0.5555702447891235
8.940696716308594e-8 0.7071065902709961 0.7071067690849304
0.13794969022274017 0.6935198903083801 0.7071067690849304
8.940696716308594e-8 0.7071065902709961 -0.7071067690849304
0.13794969022274017 0.6935198903083801 -0.7071067690849304
0 0.8314695954322815 0.5555702447891235
0.16221167147159576 0.815493106842041 0.5555702447891235
2.1606683731079102e-7 0.5555695295333862 -0.8314695954322815
0.10838638246059418 0.5448951125144958 -0.8314695954322815
5.960464477539063e-8 0.9238790273666382 0.3826834559440613
0.1802399456501007 0.906127393245697 0.3826834559440613
6.705522537231445e-8 0.3826832175254822 -0.9238795042037964
0.07465784251689911 0.3753302991390228 -0.9238795042037964
0 0.9807852506637573 0.19509032368659973
0.19134171307086945 0.9619396924972534 0.19509032368659973
1.4901161193847656e-8 0.19509010016918182 -0.9807852506637573
0.03806023299694061 0.19134171307086945 -0.9807852506637573
0 0 1
0 0 -1
0.37533026933670044 0.906127393245697 0.19509032368659973
0.3826834261417389 0.9238794445991516 0
0 0 1
0.07465782761573792 0.1802399456501007 0.9807852506637573
0 0 -1
0.07465782761573792 0.1802399456501007 -0.9807852506637573
0.37533026933670044 0.906127393245697 -0.19509032368659973
0.1464466154575348 0.3535534143447876 0.9238795042037964
0.3535533547401428 0.8535533547401428 -0.3826834559440613
0.21260753273963928 0.513279914855957 0.8314695954322815
0.3181896209716797 0.7681776285171509 -0.5555702447891235
0.27059805393218994 0.6532814502716064 0.7071067690849304
0.27059805393218994 0.6532814502716064 -0.7071067690849304
0.3181896209716797 0.7681776285171509 0.5555702447891235
0.21260753273963928 0.513279914855957 -0.8314695954322815
0.3535533547401428 0.8535533547401428 0.3826834559440613
0.1464466154575348 0.3535534143447876 -0.9238795042037964
0.4619396924972534 0.6913415789604187 -0.5555702447891235
0.39284747838974 0.5879377722740173 -0.7071067690849304
0.39284747838974 0.5879377722740173 0.7071067690849304
0.4619396924972534 0.6913415789604187 0.5555702447891235
0.30865827202796936 0.4619396924972534 -0.8314695954322815
0.513279914855957 0.7681776881217957 0.3826834559440613
0.21260753273963928 0.3181896507740021 -0.9238795042037964
0.5448951125144958 0.815493106842041 0.19509032368659973
0.10838636755943298 0.16221165657043457 -0.9807852506637573
0.5555702447891235 0.8314694762229919 0
0 0 1
0.10838636755943298 0.16221165657043457 0.9807852506637573
0 0 -1
0.5448951125144958 0.815493106842041 -0.19509032368659973
0.21260753273963928 0.3181896507740021 0.9238795042037964
0.513279914855957 0.7681776881217957 -0.3826834559440613
0.30865827202796936 0.4619396924972534 0.8314695954322815
0 0 1
0.13794967532157898 0.13794966042041779 0.9807852506637573
0 0 -1
0.13794967532157898 0.13794966042041779 -0.9807852506637573
0.7071067690849304 0.7071065902709961 0
0.6935198903083801 0.6935198307037354 -0.19509032368659973
0.27059805393218994 0.27059802412986755 0.9238795042037964
0.6532813906669617 0.6532814502716064 -0.3826834559440613
0.3928474485874176 0.3928473889827728 0.8314695954322815
0.5879377126693726 0.5879376530647278 -0.5555702447891235
0.5 0.5 0.7071067690849304
0.5 0.5 -0.7071067690849304
0.5879377126693726 0.5879376530647278 0.5555702447891235
0.3928474485874176 0.3928473889827728 -0.8314695954322815
0.6532813906669617 0.6532814502716064 0.3826834559440613
0.27059805393218994 0.27059802412986755 -0.9238795042037964
0.6935198903083801 0.6935198307037354 0.19509032368659973
0.5879377722740173 0.39284747838974 0.7071067690849304
0.6913416385650635 0.46193963289260864 0.5555702447891235
0.5879377722740173 0.39284747838974 -0.7071067690849304
0.4619397222995758 0.3086582124233246 -0.8314695954322815
0.7681776285171509 0.5132799744606018 0.3826834559440613
0.3181896507740021 0.2126075029373169 -0.9238795042037964
0.815493106842041 0.5448949933052063 0.19509032368659973
0.16221165657043457 0.10838635265827179 -0.9807852506637573
0.8314695358276367 0.5555700063705444 0
0 0 1
0.16221165657043457 0.10838635265827179 0.9807852506637573
0 0 -1
0.815493106842041 0.5448949933052063 -0.19509032368659973
0.3181896507740021 0.2126075029373169 0.9238795042037964
0.7681776285171509 0.5132799744606018 -0.3826834559440613
0.4619397222995758 0.3086582124233246 0.8314695954322815
0.6913416385650635 0.46193963289260864 -0.5555702447891235
0.9238793849945068 0.3826832175254822 0
0.9061273336410522 0.3753301501274109 -0.19509032368659973
0.18023991584777832 0.07465781271457672 0.9807852506637573
0.3535533547401428 0.1464465856552124 0.9238795042037964
0.853553295135498 0.3535534143447876 -0.3826834559440613
0.513279914855957 0.2126074582338333 0.8314695954322815
0.7681776285171509 0.31818950176239014 -0.5555702447891235
0.6532814502716064 0.27059805393218994 0.7071067690849304
0.6532814502716064 0.27059805393218994 -0.7071067690849304
0.7681776285171509 0.31818950176239014 0.5555702447891235
0.513279914855957 0.2126074582338333 -0.8314695954322815
0.853553295135498 0.3535534143447876 0.3826834559440613
0.3535533547401428 0.1464465856552124 -0.9238795042037964
0.9061273336410522 0.3753301501274109 0.19509032368659973
0.18023991584777832 0.07465781271457672 -0.9807852506637573
0 0 1
0 0 -1
0.6935198903083801 0.13794970512390137 -0.7071067690849304
0.5448950529098511 0.1083863154053688 -0.8314695954322815
0.8154929876327515 0.1622115671634674 0.5555702447891235
0.9061273336410522 0.1802399903535843 0.3826834559440613
0.37533023953437805 0.07465781271457672 -0.9238795042037964
0.9619396328926086 0.1913416087627411 0.19509032368659973
0.19134166836738586 0.03806021437048912 -0.9807852506637573
0.980785071849823 0.1950901299715042 0
0 0 1
0.19134166836738586 0.03806021437048912 0.9807852506637573
0 0 -1
0.9619396328926086 0.1913416087627411 -0.19509032368659973
0.37533023953437805 0.07465781271457672 0.9238795042037964
0.9061273336410522 0.1802399903535843 -0.3826834559440613
0.5448950529098511 0.1083863154053688 0.8314695954322815
0.8154929876327515 0.1622115671634674 -0.5555702447891235
0.6935198903083801 0.13794970512390137 0.7071067690849304
0.9807851314544678 -8.940696716308594e-8 -0.19509032368659973
0.9238794445991516 4.470348358154297e-8 -0.3826834559440613
0.3826833963394165 -2.2351741790771484e-8 0.9238795042037964
0.555570125579834 -5.21540641784668e-8 0.8314695954322815
0.8314694166183472 -8.940696716308594e-8 -0.5555702447891235
0.7071067094802856 1.4901161193847656e-8 0.7071067690849304
0.7071067094802856 1.4901161193847656e-8 -0.7071067690849304
0.8314694166183472 -8.940696716308594e-8 0.5555702447891235
0.555570125579834 -5.21540641784668e-8 -0.8314695954322815
0.9238794445991516 4.470348358154297e-8 0.3826834559440613
0.3826833963394165 -2.2351741790771484e-8 -0.9238795042037964
0.9807851314544678 -8.940696716308594e-8 0.19509032368659973
0.19509026408195496 -1.1175870895385742e-8 -0.9807852506637573
0.9999997019767761 -1.6391277313232422e-7 0
0 0 1
0.19509026408195496 -1.1175870895385742e-8 0.9807852506637573
0 0 -1
0.5448949933052063 -0.10838640481233597 -0.8314695954322815
0.37533023953437805 -0.0746578499674797 -0.9238795042037964
0.9061273336410522 -0.18023990094661713 0.3826834559440613
0.9619395732879639 -0.19134177267551422 0.19509032368659973
0.19134165346622467 -0.03806023299694061 -0.9807852506637573
0.9807848930358887 -0.1950904279947281 0
0 0 1
0.19134165346622467 -0.03806023299694061 0.9807852506637573
0 0 -1
0.9619395732879639 -0.19134177267551422 -0.19509032368659973
0.37533023953437805 -0.0746578499674797 0.9238795042037964
0.9061273336410522 -0.18023990094661713 -0.3826834559440613
0.5448949933052063 -0.10838640481233597 0.8314695954322815
0.8154929280281067 -0.16221173107624054 -0.5555702447891235
0.6935198307037354 -0.13794966042041779 0.7071067690849304
0.6935198307037354 -0.13794966042041779 -0.7071067690849304
0.8154929280281067 -0.16221173107624054 0.5555702447891235
0.3535533547401428 -0.1464466154575348 0.9238795042037964
0.5132797956466675 -0.21260753273963928 0.8314695954322815
0.853553295135498 -0.35355329513549805 -0.3826834559440613
0.7681775093078613 -0.3181896507740021 -0.5555702447891235
0.6532813906669617 -0.27059799432754517 0.7071067690849304
0.6532813906669617 -0.27059799432754517 -0.7071067690849304
0.7681775093078613 -0.3181896507740021 0.5555702447891235
0.5132797956466675 -0.21260753273963928 -0.8314695954322815
0.853553295135498 -0.35355329513549805 0.3826834559440613
0.3535533547401428 -0.1464466154575348 -0.9238795042037964
0.9061272144317627 -0.3753302991390228 0.19509032368659973
0.18023988604545593 -0.07465782016515732 -0.9807852506637573
0.923879086971283 -0.3826834559440613 0
0 0 1
0.18023988604545593 -0.07465782016515732 0.9807852506637573
0 0 -1
0.9061272144317627 -0.3753302991390228 -0.19509032368659973
0.7681776285171509 -0.5132798552513123 0.3826834559440613
0.8154929280281067 -0.5448950529098511 0.19509032368659973
0.3181895911693573 -0.2126075178384781 -0.9238795042037964
0.1622115969657898 -0.1083863377571106 -0.9807852506637573
0.8314691185951233 -0.5555701851844788 0
0 0 1
0.1622115969657898 -0.1083863377571106 0.9807852506637573
0 0 -1
0.8154929280281067 -0.5448950529098511 -0.19509032368659973
0.3181895911693573 -0.2126075178384781 0.9238795042037964
0.7681776285171509 -0.5132798552513123 -0.3826834559440613
0.46193957328796387 -0.308658242225647 0.8314695954322815
0.6913414597511292 -0.4619396924972534 -0.5555702447891235
0.5879377126693726 -0.3928474187850952 0.7071067690849304
0.5879377126693726 -0.3928474187850952 -0.7071067690849304
0.6913414597511292 -0.4619396924972534 0.5555702447891235
0.46193957328796387 -0.308658242225647 -0.8314695954322815
0.6532813906669617 -0.6532813310623169 -0.3826834559440613
0.5879375338554382 -0.5879376530647278 -0.5555702447891235
0.3928472697734833 -0.3928474187850952 0.8314695954322815
0.4999999403953552 -0.4999999403953552 0.7071067690849304
0.4999999403953552 -0.4999999403953552 -0.7071067690849304
0.5879375338554382 -0.5879376530647278 0.5555702447891235
0.3928472697734833 -0.3928474187850952 -0.8314695954322815
0.6532813906669617 -0.6532813310623169 0.3826834559440613
0.2705979645252228 -0.27059802412986755 -0.9238795042037964
0.6935197114944458 -0.6935198307037354 0.19509032368659973
0.1379496157169342 -0.1379496306180954 -0.9807852506637573
0.7071062326431274 -0.7071066498756409 0
0 0 1
0.1379496157169342 -0.1379496306180954 0.9807852506637573
0 0 -1
0.6935197114944458 -0.6935198307037354 -0.19509032368659973
0.2705979645252228 -0.27059802412986755 0.9238795042037964
0.21260744333267212 -0.3181896209716797 -0.9238795042037964
0.1083863154053688 -0.1622115969657898 -0.9807852506637573
0.5448948740959167 -0.8154929876327515 0.19509032368659973
0.5555697083473206 -0.8314693570137024 0
0 0 1
0.1083863154053688 -0.1622115969657898 0.9807852506637573
0 0 -1
0.5448948740959167 -0.8154929876327515 -0.19509032368659973
0.21260744333267212 -0.3181896209716797 0.9238795042037964
0.513279914855957 -0.7681775689125061 -0.3826834559440613
0.30865809321403503 -0.46193966269493103 0.8314695954322815
0.4619395434856415 -0.6913415193557739 -0.5555702447891235
0.3928474187850952 -0.5879377126693726 0.7071067690849304
0.3928474187850952 -0.5879377126693726 -0.7071067690849304
0.4619395434856415 -0.6913415193557739 0.5555702447891235
0.30865809321403503 -0.46193966269493103 -0.8314695954322815
0.513279914855957 -0.7681775689125061 0.3826834559440613
0.21260735392570496 -0.5132797956466675 0.8314695954322815
0.27059799432754517 -0.6532813906669617 0.7071067690849304
0.31818944215774536 -0.7681775093078613 -0.5555702447891235
0.27059799432754517 -0.6532813906669617 -0.7071067690849304
0.31818944215774536 -0.7681775093078613 0.5555702447891235
0.21260735392570496 -0.5132797956466675 -0.8314695954322815
0.3535533547401428 -0.8535531759262085 0.3826834559440613
0.14644652605056763 -0.35355332493782043 -0.9238795042037964
0.37533003091812134 -0.9061272144317627 0.19509032368659973
0.07465778291225433 -0.18023985624313354 -0.9807852506637573
0.3826829493045807 -0.9238791465759277 0
0 0 1
0.07465778291225433 -0.18023985624313354 0.9807852506637573
0 0 -1
0.37533003091812134 -0.9061272144317627 -0.19509032368659973
0.14644652605056763 -0.35355332493782043 0.9238795042037964
0.3535533547401428 -0.8535531759262085 -0.3826834559440613
0.19134151935577393 -0.9619394540786743 0.19509032368659973
0.1950899064540863 -0.9807847738265991 0
0 0 1
0.038060203194618225 -0.1913415938615799 0.9807852506637573
0 0 -1
0.038060203194618225 -0.1913415938615799 -0.9807852506637573
0.19134151935577393 -0.9619394540786743 -0.19509032368659973
0.07465776056051254 -0.3753301799297333 0.9238795042037964
0.1802399456501007 -0.9061272144317627 -0.3826834559440613
0.10838623344898224 -0.5448948740959167 0.8314695954322815
0.16221152245998383 -0.8154928684234619 -0.5555702447891235
0.13794966042041779 -0.6935198307037354 0.7071067690849304
0.13794966042041779 -0.6935198307037354 -0.7071067690849304
0.16221152245998383 -0.8154928684234619 0.5555702447891235
0.10838623344898224 -0.5448948740959167 -0.8314695954322815
0.1802399456501007 -0.9061272144317627 0.3826834559440613
0.07465776056051254 -0.3753301799297333 -0.9238795042037964
-1.043081283569336e-7 -0.8314692974090576 -0.5555702447891235
-1.4901161193847656e-8 -0.7071066498756409 -0.7071067690849304
-1.4901161193847656e-8 -0.7071066498756409 0.7071067690849304
-1.043081283569336e-7 -0.8314692974090576 0.5555702447891235
-9.685754776000977e-8 -0.5555699467658997 -0.8314695954322815
2.9802322387695312e-8 -0.9238792657852173 0.3826834559440613
-5.21540641784668e-8 -0.38268333673477173 -0.9238795042037964
-1.341104507446289e-7 -0.9807849526405334 0.19509032368659973
-7.450580596923828e-9 -0.195090189576149 -0.9807852506637573
-3.2782554626464844e-7 -0.9999993443489075 0
0 0 1
-7.450580596923828e-9 -0.195090189576149 0.9807852506637573
0 0 -1
-1.341104507446289e-7 -0.9807849526405334 -0.19509032368659973
-5.21540641784668e-8 -0.38268333673477173 0.9238795042037964
2.9802322387695312e-8 -0.9238792657852173 -0.3826834559440613
-9.685754776000977e-8 -0.5555699467658997 0.8314695954322815
0 0 -1
-0.03806021437048912 -0.1913415789604187 -0.9807852506637573
-0.19509051740169525 -0.98078453540802 0
-0.19134178757667542 -0.9619393944740295 -0.19509032368659973
-0.03806021437048912 -0.1913415789604187 0.9807852506637573
-0.0746578648686409 -0.3753301799297333 0.9238795042037964
-0.18023987114429474 -0.9061271548271179 -0.3826834559440613
-0.10838641971349716 -0.544894814491272 0.8314695954322815
-0.16221171617507935 -0.8154928088188171 -0.5555702447891235
-0.13794967532157898 -0.6935197710990906 0.7071067690849304
-0.13794967532157898 -0.6935197710990906 -0.7071067690849304
-0.16221171617507935 -0.8154928088188171 0.5555702447891235
-0.10838641971349716 -0.544894814491272 -0.8314695954322815
-0.18023987114429474 -0.9061271548271179 0.3826834559440613
-0.0746578648686409 -0.3753301799297333 -0.9238795042037964
-0.19134178757667542 -0.9619393944740295 0.19509032368659973
0 0 1
-0.27059799432754517 -0.6532813310623169 -0.7071067690849304
-0.2126075029373169 -0.5132796168327332 -0.8314695954322815
-0.3181896209716797 -0.7681773900985718 0.5555702447891235
-0.35355323553085327 -0.8535531163215637 0.3826834559440613
-0.1464466154575348 -0.35355329513549805 -0.9238795042037964
-0.37533026933670044 -0.9061270356178284 0.19509032368659973
-0.07465778291225433 -0.18023982644081116 -0.9807852506637573
-0.38268348574638367 -0.9238787293434143 0
0 0 1
-0.07465778291225433 -0.18023982644081116 0.9807852506637573
0 0 -1
-0.37533026933670044 -0.9061270356178284 -0.19509032368659973
-0.1464466154575348 -0.35355329513549805 0.9238795042037964
-0.35355323553085327 -0.8535531163215637 -0.3826834559440613
-0.2126075029373169 -0.5132796168327332 0.8314695954322815
-0.3181896209716797 -0.7681773900985718 -0.5555702447891235
-0.27059799432754517 -0.6532813310623169 0.7071067690849304
-0.10838630050420761 -0.1622115522623062 0.9807852506637573
-0.2126075029373169 -0.3181895315647125 0.9238795042037964
-0.5448950529098511 -0.8154927492141724 -0.19509032368659973
-0.5132797360420227 -0.7681775093078613 -0.3826834559440613
-0.3086581826210022 -0.46193939447402954 0.8314695954322815
-0.46193963289260864 -0.6913413405418396 -0.5555702447891235
-0.3928474187850952 -0.5879376530647278 0.7071067690849304
-0.3928474187850952 -0.5879376530647278 -0.7071067690849304
-0.46193963289260864 -0.6913413405418396 0.5555702447891235
-0.3086581826210022 -0.46193939447402954 -0.8314695954322815
-0.5132797360420227 -0.7681775093078613 0.3826834559440613
-0.2126075029373169 -0.3181895315647125 -0.9238795042037964
-0.5448950529098511 -0.8154927492141724 0.19509032368659973
-0.10838630050420761 -0.1622115522623062 -0.9807852506637573
-0.555570125579834 -0.8314687609672546 0
0 0 1
0 0 -1
-0.587937593460083 -0.5879374146461487 0.5555702447891235
-0.6532812118530273 -0.6532812714576721 0.3826834559440613
-0.39284729957580566 -0.39284712076187134 -0.8314695954322815
-0.27059799432754517 -0.2705979347229004 -0.9238795042037964
-0.6935197710990906 -0.6935195326805115 0.19509032368659973
-0.13794958591461182 -0.13794957101345062 -0.9807852506637573
-0.7071064710617065 -0.7071059346199036 0
0 0 1
-0.13794958591461182 -0.13794957101345062 0.9807852506637573
0 0 -1
-0.6935197710990906 -0.6935195326805115 -0.19509032368659973
-0.27059799432754517 -0.2705979347229004 0.9238795042037964
-0.6532812118530273 -0.6532812714576721 -0.3826834559440613
-0.39284729957580566 -0.39284712076187134 0.8314695954322815
-0.587937593460083 -0.5879374146461487 -0.5555702447891235
-0.49999991059303284 -0.49999988079071045 0.7071067690849304
-0.49999991059303284 -0.49999988079071045 -0.7071067690849304
-0.8154929280281067 -0.5448946952819824 -0.19509032368659973
-0.7681774497032166 -0.5132797956466675 -0.3826834559440613
-0.3181895613670349 -0.21260741353034973 0.9238795042037964
-0.4619395136833191 -0.3086579442024231 0.8314695954322815
-0.6913414597511292 -0.46193942427635193 -0.5555702447891235
-0.5879376530647278 -0.39284735918045044 0.7071067690849304
-0.5879376530647278 -0.39284735918045044 -0.7071067690849304
-0.6913414597511292 -0.46193942427635193 0.5555702447891235
-0.4619395136833191 -0.3086579442024231 -0.8314695954322815
-0.7681774497032166 -0.5132797956466675 0.3826834559440613
-0.3181895613670349 -0.21260741353034973 -0.9238795042037964
-0.8154929280281067 -0.5448946952819824 0.19509032368659973
-0.1622115522623062 -0.10838627815246582 -0.9807852506637573
-0.8314691185951233 -0.5555694103240967 0
0 0 1
-0.1622115522623062 -0.10838627815246582 0.9807852506637573
0 0 -1
-0.5132796168327332 -0.2126072347164154 -0.8314695954322815
-0.35355326533317566 -0.14644651114940643 -0.9238795042037964
-0.853553056716919 -0.35355326533317566 0.3826834559440613
-0.9061271548271179 -0.3753298819065094 0.19509032368659973
-0.18023981153964996 -0.07465775310993195 -0.9807852506637573
-0.9238788485527039 -0.3826826810836792 0
0 0 1
-0.18023981153964996 -0.07465775310993195 0.9807852506637573
0 0 -1
-0.9061271548271179 -0.3753298819065094 -0.19509032368659973
-0.35355326533317566 -0.14644651114940643 0.9238795042037964
-0.853553056716919 -0.35355326533317566 -0.3826834559440613
-0.5132796168327332 -0.2126072347164154 0.8314695954322815
-0.7681773900985718 -0.3181893229484558 -0.5555702447891235
-0.6532813310623169 -0.2705979645252228 0.7071067690849304
-0.6532813310623169 -0.2705979645252228 -0.7071067690849304
-0.7681773900985718 -0.3181893229484558 0.5555702447891235
-0.3753301203250885 -0.07465775310993195 0.9238795042037964
-0.5448946952819824 -0.10838615149259567 0.8314695954322815
-0.9061270952224731 -0.18023988604545593 -0.3826834559440613
-0.8154927492141724 -0.16221143305301666 -0.5555702447891235
-0.6935197710990906 -0.1379496306180954 0.7071067690849304
-0.6935197710990906 -0.1379496306180954 -0.7071067690849304
-0.8154927492141724 -0.16221143305301666 0.5555702447891235
-0.5448946952819824 -0.10838615149259567 -0.8314695954322815
-0.9061270952224731 -0.18023988604545593 0.3826834559440613
-0.3753301203250885 -0.07465775310993195 -0.9238795042037964
-0.9619393944740295 -0.19134138524532318 0.19509032368659973
-0.1913415491580963 -0.038060180842876434 -0.9807852506637573
-0.9807844161987305 -0.1950896978378296 0
0 0 1
-0.1913415491580963 -0.038060180842876434 0.9807852506637573
0 0 -1
-0.9619393944740295 -0.19134138524532318 -0.19509032368659973
-0.9238791465759277 1.4901161193847656e-8 0.3826834559440613
-0.9807848334312439 2.682209014892578e-7 0.19509032368659973
-0.38268324732780457 5.21540641784668e-8 -0.9238795042037964
-0.1950901448726654 1.862645149230957e-8 -0.9807852506637573
-0.9999990463256836 4.470348358154297e-7 0
0 0 1
-0.1950901448726654 1.862645149230957e-8 0.9807852506637573
0 0 -1
-0.9807848334312439 2.682209014892578e-7 -0.19509032368659973
-0.38268324732780457 5.21540641784668e-8 0.9238795042037964
-0.9238791465759277 1.4901161193847656e-8 -0.3826834559440613
-0.5555697679519653 1.4901161193847656e-7 0.8314695954322815
-0.8314691781997681 1.6391277313232422e-7 -0.5555702447891235
-0.7071065902709961 2.9802322387695312e-8 0.7071067690849304
-0.7071065902709961 2.9802322387695312e-8 -0.7071067690849304
-0.8314691781997681 1.6391277313232422e-7 0.5555702447891235
-0.5555697679519653 1.4901161193847656e-7 -0.8314695954322815
-0.8314691781997681 1.6391277313232422e-7 -0.5555702447891235
-0.9238791465759277 1.4901161193847656e-8 -0.3826834559440613
-0.9061270356178284 0.18023990094661713 -0.3826834559440613
-0.8154926300048828 0.16221176087856293 -0.5555702447891235
-0.7071065902709961 2.9802322387695312e-8 0.7071067690849304
-0.5555697679519653 1.4901161193847656e-7 0.8314695954322815
-0.5448946356773376 0.10838643461465836 0.8314695954322815
-0.6935197114944458 0.13794969022274017 0.7071067690849304
-0.7071065902709961 2.9802322387695312e-8 -0.7071067690849304
-0.6935197114944458 0.13794969022274017 -0.7071067690849304
-0.8314691781997681 1.6391277313232422e-7 0.5555702447891235
-0.8154926300048828 0.16221176087856293 0.5555702447891235
-0.5555697679519653 1.4901161193847656e-7 -0.8314695954322815
-0.5448946356773376 0.10838643461465836 -0.8314695954322815
-0.9238791465759277 1.4901161193847656e-8 0.3826834559440613
-0.9061270356178284 0.18023990094661713 0.3826834559440613
-0.38268324732780457 5.21540641784668e-8 -0.9238795042037964
-0.3753300905227661 0.0746578499674797 -0.9238795042037964
-0.9807848334312439 2.682209014892578e-7 0.19509032368659973
-0.9619392156600952 0.19134189188480377 0.19509032368659973
-0.1950901448726654 1.862645149230957e-8 -0.9807852506637573
-0.19134153425693512 0.03806021809577942 -0.9807852506637573
-0.9999990463256836 4.470348358154297e-7 0
-0.9807842373847961 0.19509057700634003 0
-0.1950901448726654 1.862645149230957e-8 0.9807852506637573
0 0 1
-0.19134153425693512 0.03806021809577942 0.9807852506637573
0 0 -1
-0.9807848334312439 2.682209014892578e-7 -0.19509032368659973
-0.9619392156600952 0.19134189188480377 -0.19509032368659973
-0.38268324732780457 5.21540641784668e-8 0.9238795042037964
-0.3753300905227661 0.0746578499674797 0.9238795042037964
-0.3535532057285309 0.1464465856552124 -0.9238795042037964
-0.18023978173732758 0.07465778291225433 -0.9807852506637573
-0.906126856803894 0.3753303289413452 0.19509032368659973
-0.9238784313201904 0.38268348574638367 0
0 0 1
-0.18023978173732758 0.07465778291225433 0.9807852506637573
0 0 -1
-0.906126856803894 0.3753303289413452 -0.19509032368659973
-0.3535532057285309 0.1464465856552124 0.9238795042037964
-0.8535529971122742 0.35355323553085327 -0.3826834559440613
-0.5132794380187988 0.2126074880361557 0.8314695954322815
-0.7681772112846375 0.3181896209716797 -0.5555702447891235
-0.6532812714576721 0.27059799432754517 0.7071067690849304
-0.6532812714576721 0.27059799432754517 -0.7071067690849304
-0.7681772112846375 0.3181896209716797 0.5555702447891235
-0.5132794380187988 0.2126074880361557 -0.8314695954322815
-0.8535529971122742 0.35355323553085327 0.3826834559440613
-0.6913411617279053 0.46193963289260864 -0.5555702447891235
-0.587937593460083 0.3928473889827728 -0.7071067690849304
-0.587937593460083 0.3928473889827728 0.7071067690849304
-0.6913411617279053 0.46193963289260864 0.5555702447891235
-0.4619392156600952 0.3086581528186798 -0.8314695954322815
-0.7681773900985718 0.5132797360420227 0.3826834559440613
-0.31818944215774536 0.2126074582338333 -0.9238795042037964
-0.815492570400238 0.5448950529098511 0.19509032368659973
-0.16221150755882263 0.10838629305362701 -0.9807852506637573
-0.8314684629440308 0.5555700659751892 0
0 0 1
-0.16221150755882263 0.10838629305362701 0.9807852506637573
0 0 -1
-0.815492570400238 0.5448950529098511 -0.19509032368659973
-0.31818944215774536 0.2126074582338333 0.9238795042037964
-0.7681773900985718 0.5132797360420227 -0.3826834559440613
-0.4619392156600952 0.3086581528186798 0.8314695954322815
0 0 1
-0.13794954121112823 0.13794957101345062 0.9807852506637573
0 0 -1
-0.13794954121112823 0.13794957101345062 -0.9807852506637573
-0.7071056962013245 0.707106351852417 0
-0.6935193538665771 0.6935197114944458 -0.19509032368659973
-0.2705978751182556 0.2705979347229004 0.9238795042037964
-0.6532811522483826 0.6532811522483826 -0.3826834559440613
-0.392846941947937 0.3928472399711609 0.8314695954322815
-0.5879372358322144 0.5879375338554382 -0.5555702447891235
-0.4999998211860657 0.49999988079071045 0.7071067690849304
-0.4999998211860657 0.49999988079071045 -0.7071067690849304
-0.5879372358322144 0.5879375338554382 0.5555702447891235
-0.392846941947937 0.3928472399711609 -0.8314695954322815
-0.6532811522483826 0.6532811522483826 0.3826834559440613
-0.2705978751182556 0.2705979347229004 -0.9238795042037964
-0.6935193538665771 0.6935197114944458 0.19509032368659973
-0.39284729957580566 0.5879376530647278 0.7071067690849304
-0.46193927526474 0.6913413405418396 0.5555702447891235
-0.39284729957580566 0.5879376530647278 -0.7071067690849304
-0.30865779519081116 0.46193942427635193 -0.8314695954322815
-0.5132796764373779 0.7681773900985718 0.3826834559440613
-0.21260736882686615 0.31818950176239014 -0.9238795042037964
-0.5448945760726929 0.8154928088188171 0.19509032368659973
-0.10838624835014343 0.16221152245998383 -0.9807852506637573
-0.5555692315101624 0.831468939781189 0
0 0 1
-0.10838624835014343 0.16221152245998383 0.9807852506637573
0 0 -1
-0.5448945760726929 0.8154928088188171 -0.19509032368659973
-0.21260736882686615 0.31818950176239014 0.9238795042037964
-0.5132796764373779 0.7681773900985718 -0.3826834559440613
-0.30865779519081116 0.46193942427635193 0.8314695954322815
-0.46193927526474 0.6913413405418396 -0.5555702447891235
-0.38268256187438965 0.9238786101341248 0
-0.37532979249954224 0.9061269760131836 -0.19509032368659973
-0.07465773820877075 0.18023976683616638 0.9807852506637573
-0.14644648134708405 0.35355323553085327 0.9238795042037964
-0.3535531759262085 0.8535529971122742 -0.3826834559440613
-0.21260710060596466 0.5132794976234436 0.8314695954322815
-0.31818920373916626 0.7681772708892822 -0.5555702447891235
-0.270597904920578 0.6532813310623169 0.7071067690849304
-0.270597904920578 0.6532813310623169 -0.7071067690849304
-0.31818920373916626 0.7681772708892822 0.5555702447891235
-0.21260710060596466 0.5132794976234436 -0.8314695954322815
-0.3535531759262085 0.8535529971122742 0.3826834559440613
-0.14644648134708405 0.35355323553085327 -0.9238795042037964
-0.37532979249954224 0.9061269760131836 0.19509032368659973
-0.07465773820877075 0.18023976683616638 -0.9807852506637573
0 0 1
0 0 -1
-0.13794957101345062 0.6935197710990906 -0.7071067690849304
-0.10838603973388672 0.5448945164680481 -0.8314695954322815
-0.1622113287448883 0.815492570400238 0.5555702447891235
-0.18023981153964996 0.9061269760131836 0.3826834559440613
-0.07465773075819016 0.3753300905227661 -0.9238795042037964
-0.1913413256406784 0.9619392156600952 0.19509032368659973
-0.038060177117586136 0.19134150445461273 -0.9807852506637573
-0.19508962333202362 0.9807841777801514 0
0 0 1
-0.038060177117586136 0.19134150445461273 0.9807852506637573
0 0 -1
-0.1913413256406784 0.9619392156600952 -0.19509032368659973
-0.07465773075819016 0.3753300905227661 0.9238795042037964
-0.18023981153964996 0.9061269760131836 -0.3826834559440613
-0.10838603973388672 0.5448945164680481 0.8314695954322815
-0.1622113287448883 0.815492570400238 -0.5555702447891235
-0.13794957101345062 0.6935197710990906 0.7071067690849304
0 0 1
0 0 -1
3 0 1 2
3 0 2 3
3 4 5 6
3 4 6 7
3 8 0 3
3 8 3 9
3 10 4 7
3 10 7 11
3 12 8 9
3 12 9 13
3 14 10 11
3 14 11 15
3 16 12 13
3 16 13 17
3 18 14 15
3 18 15 19
3 20 16 17
3 20 17 21
3 22 18 19
3 22 19 23
3 24 20 21
3 24 21 25
3 26 22 23
3 26 23 27
3 28 24 25
3 28 25 29
3 1 26 27
3 1 27 2
3 5 30 6
3 31 28 29
3 2 27 32
3 2 32 33
3 6 34 35
3 36 29 37
3 3 2 33
3 3 33 38
3 7 6 35
3 7 35 39
3 9 3 38
3 9 38 40
3 11 7 39
3 11 39 41
3 13 9 40
3 13 40 42
3 15 11 41
3 15 41 43
3 17 13 42
3 17 42 44
3 19 15 43
3 19 43 45
3 21 17 44
3 21 44 46
3 23 19 45
3 23 45 47
3 25 21 46
3 25 46 48
3 27 23 47
3 27 47 32
3 29 25 48
3 29 48 37
3 44 42 49
3 44 49 50
3 45 43 51
3 45 51 52
3 46 44 50
3 46 50 53
3 47 45 52
3 47 52 54
3 48 46 53
3 48 53 55
3 32 47 54
3 32 54 56
3 37 48 55
3 37 55 57
3 33 32 56
3 33 56 58
3 35 59 60
3 61 37 57
3 38 33 58
3 38 58 62
3 39 35 60
3 39 60 63
3 40 38 62
3 40 62 64
3 41 39 63
3 41 63 65
3 42 40 64
3 42 64 49
3 43 41 65
3 43 65 51
3 60 66 67
3 68 57 69
3 62 58 70
3 62 70 71
3 63 60 67
3 63 67 72
3 64 62 71
3 64 71 73
3 65 63 72
3 65 72 74
3 49 64 73
3 49 73 75
3 51 65 74
3 51 74 76
3 50 49 75
3 50 75 77
3 52 51 76
3 52 76 78
3 53 50 77
3 53 77 79
3 54 52 78
3 54 78 80
3 55 53 79
3 55 79 81
3 56 54 80
3 56 80 82
3 57 55 81
3 57 81 69
3 58 56 82
3 58 82 70
3 78 76 83
3 78 83 84
3 79 77 85
3 79 85 86
3 80 78 84
3 80 84 87
3 81 79 86
3 81 86 88
3 82 80 87
3 82 87 89
3 69 81 88
3 69 88 90
3 70 82 89
3 70 89 91
3 67 92 93
3 94 69 90
3 71 70 91
3 71 91 95
3 72 67 93
3 72 93 96
3 73 71 95
3 73 95 97
3 74 72 96
3 74 96 98
3 75 73 97
3 75 97 99
3 76 74 98
3 76 98 83
3 77 75 99
3 77 99 85
3 95 91 100
3 95 100 101
3 96 93 102
3 96 102 103
3 97 95 101
3 97 101 104
3 98 96 103
3 98 103 105
3 99 97 104
3 99 104 106
3 83 98 105
3 83 105 107
3 85 99 106
3 85 106 108
3 84 83 107
3 84 107 109
3 86 85 108
3 86 108 110
3 87 84 109
3 87 109 111
3 88 86 110
3 88 110 112
3 89 87 111
3 89 111 113
3 90 88 112
3 90 112 114
3 91 89 113
3 91 113 100
3 93 115 102
3 116 90 114
3 110 108 117
3 110 117 118
3 111 109 119
3 111 119 120
3 112 110 118
3 112 118 121
3 113 111 120
3 113 120 122
3 114 112 121
3 114 121 123
3 100 113 122
3 100 122 124
3 102 125 126
3 127 114 123
3 101 100 124
3 101 124 128
3 103 102 126
3 103 126 129
3 104 101 128
3 104 128 130
3 105 103 129
3 105 129 131
3 106 104 130
3 106 130 132
3 107 105 131
3 107 131 133
3 108 106 132
3 108 132 117
3 109 107 133
3 109 133 119
3 130 128 134
3 130 134 135
3 131 129 136
3 131 136 137
3 132 130 135
3 132 135 138
3 133 131 137
3 133 137 139
3 117 132 138
3 117 138 140
3 119 133 139
3 119 139 141
3 118 117 140
3 118 140 142
3 120 119 141
3 120 141 143
3 121 118 142
3 121 142 144
3 122 120 143
3 122 143 145
3 123 121 144
3 123 144 146
3 124 122 145
3 124 145 147
3 126 148 149
3 150 123 146
3 128 124 147
3 128 147 134
3 129 126 149
3 129 149 136
3 144 142 151
3 144 151 152
3 145 143 153
3 145 153 154
3 146 144 152
3 146 152 155
3 147 145 154
3 147 154 156
3 149 157 158
3 159 146 155
3 134 147 156
3 134 156 160
3 136 149 158
3 136 158 161
3 135 134 160
3 135 160 162
3 137 136 161
3 137 161 163
3 138 135 162
3 138 162 164
3 139 137 163
3 139 163 165
3 140 138 164
3 140 164 166
3 141 139 165
3 141 165 167
3 142 140 166
3 142 166 151
3 143 141 167
3 143 167 153
3 163 161 168
3 163 168 169
3 164 162 170
3 164 170 171
3 165 163 169
3 165 169 172
3 166 164 171
3 166 171 173
3 167 165 172
3 167 172 174
3 151 166 173
3 151 173 175
3 153 167 174
3 153 174 176
3 152 151 175
3 152 175 177
3 154 153 176
3 154 176 178
3 155 152 177
3 155 177 179
3 156 154 178
3 156 178 180
3 158 181 182
3 183 155 179
3 160 156 180
3 160 180 184
3 161 158 182
3 161 182 168
3 162 160 184
3 162 184 170
3 178 176 185
3 178 185 186
3 179 177 187
3 179 187 188
3 180 178 186
3 180 186 189
3 182 190 191
3 192 179 188
3 184 180 189
3 184 189 193
3 168 182 191
3 168 191 194
3 170 184 193
3 170 193 195
3 169 168 194
3 169 194 196
3 171 170 195
3 171 195 197
3 172 169 196
3 172 196 198
3 173 171 197
3 173 197 199
3 174 172 198
3 174 198 200
3 175 173 199
3 175 199 201
3 176 174 200
3 176 200 185
3 177 175 201
3 177 201 187
3 197 195 202
3 197 202 203
3 198 196 204
3 198 204 205
3 199 197 203
3 199 203 206
3 200 198 205
3 200 205 207
3 201 199 206
3 201 206 208
3 185 200 207
3 185 207 209
3 187 201 208
3 187 208 210
3 186 185 209
3 186 209 211
3 188 187 210
3 188 210 212
3 189 186 211
3 189 211 213
3 191 214 215
3 216 188 212
3 193 189 213
3 193 213 217
3 194 191 215
3 194 215 218
3 195 193 217
3 195 217 202
3 196 194 218
3 196 218 204
3 212 210 219
3 212 219 220
3 213 211 221
3 213 221 222
3 215 223 224
3 225 212 220
3 217 213 222
3 217 222 226
3 218 215 224
3 218 224 227
3 202 217 226
3 202 226 228
3 204 218 227
3 204 227 229
3 203 202 228
3 203 228 230
3 205 204 229
3 205 229 231
3 206 203 230
3 206 230 232
3 207 205 231
3 207 231 233
3 208 206 232
3 208 232 234
3 209 207 233
3 209 233 235
3 210 208 234
3 210 234 219
3 211 209 235
3 211 235 221
3 231 229 236
3 231 236 237
3 232 230 238
3 232 238 239
3 233 231 237
3 233 237 240
3 234 232 239
3 234 239 241
3 235 233 240
3 235 240 242
3 219 234 241
3 219 241 243
3 221 235 242
3 221 242 244
3 220 219 243
3 220 243 245
3 222 221 244
3 222 244 246
3 224 247 248
3 249 220 245
3 226 222 246
3 226 246 250
3 227 224 248
3 227 248 251
3 228 226 250
3 228 250 252
3 229 227 251
3 229 251 236
3 230 228 252
3 230 252 238
3 246 244 253
3 246 253 254
3 248 255 256
3 257 245 258
3 250 246 254
3 250 254 259
3 251 248 256
3 251 256 260
3 252 250 259
3 252 259 261
3 236 251 260
3 236 260 262
3 238 252 261
3 238 261 263
3 237 236 262
3 237 262 264
3 239 238 263
3 239 263 265
3 240 237 264
3 240 264 266
3 241 239 265
3 241 265 267
3 242 240 266
3 242 266 268
3 243 241 267
3 243 267 269
3 244 242 268
3 244 268 253
3 245 243 269
3 245 269 258
3 265 263 270
3 265 270 271
3 266 264 272
3 266 272 273
3 267 265 271
3 267 271 274
3 268 266 273
3 268 273 275
3 269 267 274
3 269 274 276
3 253 268 275
3 253 275 277
3 258 269 276
3 258 276 278
3 254 253 277
3 254 277 279
3 256 280 281
3 282 258 278
3 259 254 279
3 259 279 283
3 260 256 281
3 260 281 284
3 261 259 283
3 261 283 285
3 262 260 284
3 262 284 286
3 263 261 285
3 263 285 270
3 264 262 286
3 264 286 272
3 287 278 288
3 283 279 289
3 283 289 290
3 284 281 291
3 284 291 292
3 285 283 290
3 285 290 293
3 286 284 292
3 286 292 294
3 270 285 293
3 270 293 295
3 272 286 294
3 272 294 296
3 271 270 295
3 271 295 297
3 273 272 296
3 273 296 298
3 274 271 297
3 274 297 299
3 275 273 298
3 275 298 300
3 276 274 299
3 276 299 301
3 277 275 300
3 277 300 302
3 278 276 301
3 278 301 288
3 279 277 302
3 279 302 289
3 281 303 291
3 299 297 304
3 299 304 305
3 300 298 306
3 300 306 307
3 301 299 305
3 301 305 308
3 302 300 307
3 302 307 309
3 288 301 308
3 288 308 310
3 289 302 309
3 289 309 311
3 291 312 313
3 314 288 310
3 290 289 311
3 290 311 315
3 292 291 313
3 292 313 316
3 293 290 315
3 293 315 317
3 294 292 316
3 294 316 318
3 295 293 317
3 295 317 319
3 296 294 318
3 296 318 320
3 297 295 319
3 297 319 304
3 298 296 320
3 298 320 306
3 316 313 321
3 316 321 322
3 317 315 323
3 317 323 324
3 318 316 322
3 318 322 325
3 319 317 324
3 319 324 326
3 320 318 325
3 320 325 327
3 304 319 326
3 304 326 328
3 306 320 327
3 306 327 329
3 305 304 328
3 305 328 330
3 307 306 329
3 307 329 331
3 308 305 330
3 308 330 332
3 309 307 331
3 309 331 333
3 310 308 332
3 310 332 334
3 311 309 333
3 311 333 335
3 313 336 321
3 337 310 334
3 315 311 335
3 315 335 323
3 331 329 338
3 331 338 339
3 332 330 340
3 332 340 341
3 333 331 339
3 333 339 342
3 334 332 341
3 334 341 343
3 335 333 342
3 335 342 344
3 321 345 346
3 347 334 343
3 323 335 344
3 323 344 348
3 322 321 346
3 322 346 349
3 324 323 348
3 324 348 350
3 325 322 349
3 325 349 351
3 326 324 350
3 326 350 352
3 327 325 351
3 327 351 353
3 328 326 352
3 328 352 354
3 329 327 353
3 329 353 338
3 330 328 354
3 330 354 340
3 350 348 355
3 350 355 356
3 351 349 357
3 351 357 358
3 352 350 356
3 352 356 359
3 353 351 358
3 353 358 360
3 354 352 359
3 354 359 361
3 338 353 360
3 338 360 362
3 340 354 361
3 340 361 363
3 339 338 362
3 339 362 364
3 341 340 363
3 341 363 365
3 342 339 364
3 342 364 366
3 343 341 365
3 343 365 367
3 344 342 366
3 344 366 368
3 346 369 370
3 371 343 367
3 348 344 368
3 348 368 355
3 349 346 370
3 349 370 357
3 365 363 372
3 365 372 373
3 366 364 374
3 366 374 375
3 367 365 373
3 367 373 376
3 368 366 375
3 368 375 377
3 370 378 379
3 380 367 376
3 355 368 377
3 355 377 381
3 357 370 379
3 357 379 382
3 356 355 381
3 356 381 383
3 358 357 382
3 358 382 384
3 359 356 383
3 359 383 385
3 360 358 384
3 360 384 386
3 361 359 385
3 361 385 387
3 362 360 386
3 362 386 388
3 363 361 387
3 363 387 372
3 364 362 388
3 364 388 374
3 384 382 389
3 384 389 390
3 385 383 391
3 385 391 392
3 386 384 390
3 386 390 393
3 387 385 392
3 387 392 394
3 388 386 393
3 388 393 395
3 372 387 394
3 372 394 396
3 374 388 395
3 374 395 397
3 373 372 396
3 373 396 398
3 375 374 397
3 375 397 399
3 376 373 398
3 376 398 400
3 377 375 399
3 377 399 401
3 379 402 403
3 404 376 400
3 381 377 401
3 381 401 405
3 382 379 403
3 382 403 389
3 383 381 405
3 383 405 391
3 399 397 406
3 399 406 407
3 400 398 408
3 400 408 409
3 401 399 407
3 401 407 410
3 403 411 412
3 413 400 409
3 405 401 410
3 405 410 414
3 389 403 412
3 389 412 415
3 391 405 414
3 391 414 416
3 390 389 415
3 390 415 417
3 392 391 416
3 392 416 418
3 393 390 417
3 393 417 419
3 394 392 418
3 394 418 420
3 395 393 419
3 395 419 421
3 396 394 420
3 396 420 422
3 397 395 421
3 397 421 406
3 398 396 422
3 398 422 408
3 423 424 425
3 423 425 426
3 427 428 429
3 427 429 430
3 431 423 426
3 431 426 432
3 433 427 430
3 433 430 434
3 435 431 432
3 435 432 436
3 437 433 434
3 437 434 438
3 439 435 436
3 439 436 440
3 441 437 438
3 441 438 442
3 443 439 440
3 443 440 444
3 445 441 442
3 445 442 446
3 447 448 449
3 450 443 444
3 451 445 446
3 451 446 452
3 453 447 449
3 453 449 454
3 424 451 452
3 424 452 425
3 428 453 454
3 428 454 429
3 444 440 455
3 444 455 456
3 446 442 457
3 446 457 458
3 449 459 460
3 461 444 456
3 452 446 458
3 452 458 462
3 454 449 460
3 454 460 463
3 425 452 462
3 425 462 464
3 429 454 463
3 429 463 465
3 426 425 464
3 426 464 466
3 430 429 465
3 430 465 467
3 432 426 466
3 432 466 468
3 434 430 467
3 434 467 469
3 436 432 468
3 436 468 470
3 438 434 469
3 438 469 471
3 440 436 470
3 440 470 455
3 442 438 471
3 442 471 457
3 468 466 472
3 468 472 473
3 469 467 474
3 469 474 475
3 470 468 473
3 470 473 476
3 471 469 475
3 471 475 477
3 455 470 476
3 455 476 478
3 457 471 477
3 457 477 479
3 456 455 478
3 456 478 480
3 458 457 479
3 458 479 481
3 460 482 483
3 484 456 480
3 462 458 481
3 462 481 485
3 463 460 483
3 463 483 486
3 464 462 485
3 464 485 487
3 465 463 486
3 465 486 488
3 466 464 487
3 466 487 472
3 467 465 488
3 467 488 474
3 483 489 490
3 491 480 492
3 485 481 493
3 485 493 494
3 486 483 490
3 486 490 495
3 487 485 494
3 487 494 496
3 488 486 495
3 488 495 497
3 472 487 496
3 472 496 498
3 474 488 497
3 474 497 499
3 473 472 498
3 473 498 500
3 475 474 499
3 475 499 501
3 476 473 500
3 476 500 502
3 477 475 501
3 477 501 503
3 478 476 502
3 478 502 504
3 479 477 503
3 479 503 505
3 480 478 504
3 480 504 492
3 481 479 505
3 481 505 493
3 501 499 506
3 501 506 507
3 502 500 508
3 502 508 509
3 503 501 507
3 503 507 510
3 504 502 509
3 504 509 511
3 505 503 510
3 505 510 512
3 492 504 511
3 492 511 513
3 493 505 512
3 493 512 514
3 490 515 516
3 517 492 513
3 494 493 514
3 494 514 518
3 495 490 516
3 495 516 519
3 496 494 518
3 496 518 520
3 497 495 519
3 497 519 521
3 498 496 520
3 498 520 522
3 499 497 521
3 499 521 506
3 500 498 522
3 500 522 508
3 518 514 523
3 518 523 524
3 519 516 525
3 519 525 526
3 520 518 524
3 520 524 527
3 521 519 526
3 521 526 528
3 522 520 527
3 522 527 529
3 506 521 528
3 506 528 530
3 508 522 529
3 508 529 531
3 507 506 530
3 507 530 532
3 509 508 531
3 509 531 533
3 510 507 532
3 510 532 534
3 511 509 533
3 511 533 535
3 512 510 534
3 512 534 536
3 513 511 535
3 513 535 537
3 514 512 536
3 514 536 523
3 516 538 525
3 539 513 537
3 533 531 540
3 533 540 541
3 534 532 542
3 534 542 543
3 535 533 541
3 535 541 544
3 536 534 543
3 536 543 545
3 537 535 544
3 537 544 546
3 523 536 545
3 523 545 547
3 525 548 549
3 550 537 546
3 524 523 547
3 524 547 551
3 526 525 549
3 526 549 552
3 527 524 551
3 527 551 553
3 528 526 552
3 528 552 554
3 529 527 553
3 529 553 555
3 530 528 554
3 530 554 556
3 531 529 555
3 531 555 540
3 532 530 556
3 532 556 542
3 552 549 5
3 552 5 4
3 553 551 0
3 553 0 8
3 554 552 4
3 554 4 10
3 555 553 8
3 555 8 12
3 556 554 10
3 556 10 14
3 540 555 12
3 540 12 16
3 542 556 14
3 542 14 18
3 541 540 16
3 541 16 20
3 543 542 18
3 543 18 22
3 544 541 20
3 544 20 24
3 545 543 22
3 545 22 26
3 546 544 24
3 546 24 28
3 547 545 26
3 547 26 1
3 549 557 5
3 558 546 28
3 551 547 1
3 551 1 0
